<svg viewBox="0 0 32 32" xmlns="http://www.w3.org/2000/svg"><symbol viewBox="0 0 11 10" id="msv-external-link"><title>Shape</title><desc>Created with Sketch.</desc> <!-- Generator: Sketch 39.1 (31720) - http://www.bohemiancoding.com/sketch -->    <g id="external-link-Page-1" stroke="none" stroke-width="1" fill-rule="evenodd"> <g id="external-link-news_design_5" transform="translate(-751.000000, -663.000000)"> <path d="M759.642857,668.965609 L759.642857,670.949736 C759.642857,671.441634 759.469959,671.862227 759.124163,672.211516 C758.778367,672.560805 758.361979,672.73545 757.875,672.73545 L752.767857,672.73545 C752.280878,672.73545 751.86449,672.560805 751.518694,672.211516 C751.172898,671.862227 751,671.441634 751,670.949736 L751,665.791005 C751,665.299107 751.172898,664.878514 751.518694,664.529224 C751.86449,664.179936 752.280878,664.005291 752.767857,664.005291 L757.089286,664.005291 C757.146577,664.005291 757.193638,664.023892 757.230469,664.061094 C757.267299,664.098297 757.285714,664.145833 757.285714,664.203704 L757.285714,664.600529 C757.285714,664.6584 757.267299,664.705936 757.230469,664.743138 C757.193638,664.780341 757.146577,664.798942 757.089286,664.798942 L752.767857,664.798942 C752.497768,664.798942 752.266555,664.896081 752.074219,665.09036 C751.881882,665.28464 751.785714,665.518188 751.785714,665.791005 L751.785714,670.949736 C751.785714,671.222553 751.881882,671.456101 752.074219,671.65038 C752.266555,671.844659 752.497768,671.941799 752.767857,671.941799 L757.875,671.941799 C758.145089,671.941799 758.376302,671.844659 758.568638,671.65038 C758.760975,671.456101 758.857143,671.222553 758.857143,670.949736 L758.857143,668.965609 C758.857143,668.907738 758.875558,668.860202 758.912388,668.822999 C758.949219,668.785797 758.99628,668.767196 759.053572,668.767196 L759.446428,668.767196 C759.50372,668.767196 759.550781,668.785797 759.587612,668.822999 C759.624442,668.860202 759.642857,668.907738 759.642857,668.965609 L759.642857,668.965609 Z M762,663.608466 L762,666.783069 C762,666.890542 761.961123,666.983548 761.883371,667.062087 C761.805618,667.140625 761.713542,667.179894 761.607143,667.179894 C761.500744,667.179894 761.408668,667.140625 761.330915,667.062087 L760.250558,665.970817 L756.248326,670.013476 C756.207403,670.054811 756.160342,670.07548 756.107143,670.07548 C756.053943,670.07548 756.006882,670.054811 755.96596,670.013476 L755.266183,669.30663 C755.225261,669.265294 755.204799,669.217758 755.204799,669.164021 C755.204799,669.110284 755.225261,669.062748 755.266183,669.021412 L759.268415,664.978753 L758.188058,663.887483 C758.110305,663.808945 758.071428,663.715939 758.071428,663.608466 C758.071428,663.500992 758.110305,663.407986 758.188058,663.329448 C758.265811,663.250909 758.357887,663.21164 758.464286,663.21164 L761.607143,663.21164 C761.713542,663.21164 761.805618,663.250909 761.883371,663.329448 C761.961123,663.407986 762,663.500992 762,663.608466 L762,663.608466 Z" id="external-link-Shape"/> </g> </g> </symbol><symbol viewBox="0.781 0.938 21.614 16.926" id="msv-left_arrow"><title>ic_arrow</title><desc>Created with Sketch.</desc>   <polygon points="1.379,9.2 1.163,8.982 9.245,0.936 11.362,3.062 6.4,8.002 22.397,8.018 22.394,11.018 
	6.228,11.001 10.969,15.741 8.848,17.862 0.781,9.799 "/> </symbol><symbol viewBox="0 0 35.999 36" id="msv-linkedin"><title>linkedin</title> <path d="M33.336,0H2.655C1.19,0,0,1.162,0,2.596v30.807C0,34.836,1.19,36,2.655,36h30.681
	c1.468,0,2.663-1.164,2.663-2.598V2.596C35.999,1.162,34.804,0,33.336,0z M5.334,13.496h5.345v17.18H5.334V13.496z M8.008,4.956
	c1.708,0,3.095,1.387,3.095,3.096c0,1.709-1.387,3.097-3.095,3.097c-1.715,0-3.098-1.387-3.098-3.097
	C4.91,6.343,6.293,4.956,8.008,4.956 M14.028,13.496h5.118v2.349h0.073c0.712-1.351,2.454-2.775,5.052-2.775
	c5.406,0,6.405,3.557,6.405,8.184v9.422h-5.339v-8.354c0-1.992-0.034-4.555-2.774-4.555c-2.778,0-3.202,2.171-3.202,4.413v8.497
	h-5.333V13.496z"/> </symbol><symbol viewBox="0 0 29 29" id="msv-logo_icon"><title>logo_icon</title><desc>Created with Sketch.</desc> <!-- Generator: Sketch 39.1 (31720) - http://www.bohemiancoding.com/sketch -->    <g id="logo_icon-Page-1" stroke="none" stroke-width="1" fill-rule="evenodd"> <g id="logo_icon-Home_1140-50pxpadding" transform="translate(-686.000000, -1020.000000)"> <g id="logo_icon-floating_supportive_copy" transform="translate(-2.000000, 1020.000000)"> <g id="logo_icon-logo_icon" transform="translate(688.000000, 0.000000)"> <rect id="logo_icon-Rectangle-15" x="15" y="15" width="14" height="14"/> <rect id="logo_icon-Rectangle-15" x="15" y="0" width="14" height="14"/> <rect id="logo_icon-Rectangle-15" x="0" y="0" width="14" height="14"/> <rect id="logo_icon-Rectangle-15" x="0" y="15" width="14" height="14"/> </g> </g> </g> </g> </symbol><symbol viewBox="0.781 0.938 21.614 16.926" id="msv-right_arrow"><title>ic_arrow</title><desc>Created with Sketch.</desc>   <polygon points="21.798,9.21 22.015,8.993 13.94,0.938 11.821,3.062 16.778,8.007 0.781,8.007 0.781,11.007 
	16.947,11.007 12.201,15.741 14.32,17.864 22.396,9.81 "/> </symbol><symbol viewBox="0 0 24 20" id="msv-twitter"><title>Shape</title><desc>Created with Sketch.</desc> <!-- Generator: Sketch 3.8.3 (29802) - http://www.bohemiancoding.com/sketch -->    <g id="twitter-Page-1" stroke="none" stroke-width="1" fill-rule="evenodd"> <g id="twitter-team_page" transform="translate(-393.000000, -585.000000)"> <g id="twitter-NEW_team_member_left_v1" transform="translate(-69.000000, 234.000000)"> <g id="twitter-content" transform="translate(409.000000, 218.000000)"> <g id="twitter-twitter" transform="translate(53.000000, 133.000000)"> <path d="M24,2.375 C23.3197969,3.39583333 22.4974619,4.265625 21.5329949,4.984375 C21.5431472,5.13020833 21.5482234,5.34895833 21.5482234,5.640625 C21.5482234,6.99479167 21.3553299,8.34635417 20.9695431,9.6953125 C20.5837564,11.0442708 19.9974619,12.3385417 19.2106599,13.578125 C18.4238579,14.8177083 17.4873096,15.9140625 16.4010152,16.8671875 C15.3147208,17.8203125 14.0050761,18.5807292 12.4720812,19.1484375 C10.9390863,19.7161458 9.29949239,20 7.55329949,20 C4.80203045,20 2.28426396,19.2447917 0,17.734375 C0.355329944,17.7760417 0.75126903,17.796875 1.18781726,17.796875 C3.47208122,17.796875 5.50761422,17.078125 7.29441624,15.640625 C6.2284264,15.6197917 5.27411167,15.2838542 4.43147208,14.6328125 C3.58883249,13.9817708 3.01015229,13.1510417 2.69543147,12.140625 C3.03045685,12.1927083 3.34010152,12.21875 3.62436548,12.21875 C4.06091371,12.21875 4.49238579,12.1614583 4.91878173,12.046875 C3.78172588,11.8072917 2.84010152,11.2265625 2.09390863,10.3046875 C1.34771574,9.3828125 0.974619289,8.3125 0.974619289,7.09375 L0.974619289,7.03125 C1.66497461,7.42708333 2.40609137,7.640625 3.19796954,7.671875 C2.52791878,7.21354167 1.99492386,6.61458333 1.59898477,5.875 C1.20304569,5.13541667 1.00507614,4.33333333 1.00507614,3.46875 C1.00507614,2.55208333 1.2284264,1.703125 1.6751269,0.921875 C2.9035533,2.47395833 4.39847715,3.71614583 6.15989848,4.6484375 C7.9213198,5.58072917 9.8071066,6.09895833 11.8172589,6.203125 C11.7360406,5.80729167 11.6954315,5.421875 11.6954315,5.046875 C11.6954315,3.65104167 12.1751269,2.4609375 13.1345178,1.4765625 C14.0939086,0.4921875 15.2538071,0 16.6142132,0 C18.035533,0 19.2335025,0.53125 20.2081218,1.59375 C21.3147208,1.375 22.3553299,0.96875 23.3299492,0.375 C22.9543147,1.57291667 22.2335025,2.5 21.1675127,3.15625 C22.1116751,3.05208333 23.0558376,2.79166667 24,2.375 L24,2.375 Z" id="twitter-Shape"/> </g> </g> </g> </g> </g> </symbol></svg>